<mxfile host="app.diagrams.net" agent="Mozilla/5.0 (X11; Linux x86_64) AppleWebKit/537.36 (KHTML, like Gecko) Chrome/132.0.0.0 Safari/537.36" version="26.0.10">
  <diagram name="Page-1" id="ynTKS2v_TZv17swCPKiS">
    <mxGraphModel dx="1900" dy="907" grid="1" gridSize="10" guides="1" tooltips="1" connect="1" arrows="1" fold="1" page="1" pageScale="1" pageWidth="827" pageHeight="1169" math="0" shadow="0">
      <root>
        <mxCell id="0" />
        <mxCell id="1" parent="0" />
        <mxCell id="ltitkqDnKHNBnyyiyaz9-99" value="" style="rounded=1;whiteSpace=wrap;html=1;fillColor=#EEEEEE;strokeColor=none;opacity=50;" parent="1" vertex="1">
          <mxGeometry x="590" y="90" width="344" height="414.5" as="geometry" />
        </mxCell>
        <mxCell id="ltitkqDnKHNBnyyiyaz9-87" value="" style="rounded=1;whiteSpace=wrap;html=1;strokeColor=none;fillColor=#EEEEEE;fontStyle=1;opacity=50;" parent="1" vertex="1">
          <mxGeometry x="-110" y="436.5" width="530" height="343.5" as="geometry" />
        </mxCell>
        <mxCell id="ltitkqDnKHNBnyyiyaz9-67" value="" style="rounded=1;whiteSpace=wrap;html=1;strokeColor=none;fillColor=#EEEEEE;fontStyle=1;opacity=50;" parent="1" vertex="1">
          <mxGeometry x="-100" y="44.5" width="550" height="321" as="geometry" />
        </mxCell>
        <mxCell id="ltitkqDnKHNBnyyiyaz9-65" style="edgeStyle=orthogonalEdgeStyle;rounded=1;orthogonalLoop=1;jettySize=auto;html=1;exitX=1;exitY=0.5;exitDx=0;exitDy=0;entryX=1;entryY=0.5;entryDx=0;entryDy=0;" parent="1" source="ltitkqDnKHNBnyyiyaz9-3" target="ltitkqDnKHNBnyyiyaz9-31" edge="1">
          <mxGeometry relative="1" as="geometry">
            <Array as="points">
              <mxPoint x="149" y="151" />
              <mxPoint x="149" y="285" />
            </Array>
          </mxGeometry>
        </mxCell>
        <mxCell id="zWz8RV0xRibQdLOpu7tA-6" style="edgeStyle=orthogonalEdgeStyle;shape=connector;rounded=1;orthogonalLoop=1;jettySize=auto;html=1;exitX=1;exitY=0.5;exitDx=0;exitDy=0;entryX=1;entryY=0.5;entryDx=0;entryDy=0;strokeColor=default;align=center;verticalAlign=middle;fontFamily=Helvetica;fontSize=11;fontColor=default;labelBackgroundColor=default;endArrow=classic;" edge="1" parent="1" source="ltitkqDnKHNBnyyiyaz9-3" target="zWz8RV0xRibQdLOpu7tA-2">
          <mxGeometry relative="1" as="geometry">
            <Array as="points">
              <mxPoint x="149" y="151" />
              <mxPoint x="149" y="205" />
            </Array>
          </mxGeometry>
        </mxCell>
        <mxCell id="zWz8RV0xRibQdLOpu7tA-7" style="edgeStyle=orthogonalEdgeStyle;shape=connector;rounded=1;orthogonalLoop=1;jettySize=auto;html=1;exitX=1;exitY=0.5;exitDx=0;exitDy=0;entryX=1;entryY=0.5;entryDx=0;entryDy=0;strokeColor=default;align=center;verticalAlign=middle;fontFamily=Helvetica;fontSize=11;fontColor=default;labelBackgroundColor=default;endArrow=classic;" edge="1" parent="1" source="ltitkqDnKHNBnyyiyaz9-3" target="ltitkqDnKHNBnyyiyaz9-30">
          <mxGeometry relative="1" as="geometry">
            <Array as="points">
              <mxPoint x="149" y="151" />
              <mxPoint x="149" y="245" />
            </Array>
          </mxGeometry>
        </mxCell>
        <mxCell id="zWz8RV0xRibQdLOpu7tA-8" style="edgeStyle=orthogonalEdgeStyle;shape=connector;rounded=1;orthogonalLoop=1;jettySize=auto;html=1;exitX=1;exitY=0.5;exitDx=0;exitDy=0;entryX=1;entryY=0.5;entryDx=0;entryDy=0;strokeColor=default;align=center;verticalAlign=middle;fontFamily=Helvetica;fontSize=11;fontColor=default;labelBackgroundColor=default;endArrow=classic;" edge="1" parent="1" source="ltitkqDnKHNBnyyiyaz9-3" target="zWz8RV0xRibQdLOpu7tA-1">
          <mxGeometry relative="1" as="geometry">
            <Array as="points">
              <mxPoint x="149" y="151" />
              <mxPoint x="149" y="326" />
            </Array>
          </mxGeometry>
        </mxCell>
        <mxCell id="ltitkqDnKHNBnyyiyaz9-3" value="&lt;font style=&quot;font-size: 18px;&quot;&gt;Exponential&lt;/font&gt;" style="rounded=1;whiteSpace=wrap;html=1;fillColor=#68A9D4;" parent="1" vertex="1">
          <mxGeometry x="-15" y="131" width="120" height="40" as="geometry" />
        </mxCell>
        <mxCell id="ltitkqDnKHNBnyyiyaz9-4" value="&lt;font style=&quot;font-size: 18px;&quot;&gt;g&lt;/font&gt;" style="rounded=1;whiteSpace=wrap;html=1;fillColor=#68A9D4;" parent="1" vertex="1">
          <mxGeometry x="320" y="131" width="90" height="40" as="geometry" />
        </mxCell>
        <mxCell id="ltitkqDnKHNBnyyiyaz9-62" style="edgeStyle=orthogonalEdgeStyle;rounded=1;orthogonalLoop=1;jettySize=auto;html=1;exitX=0.5;exitY=1;exitDx=0;exitDy=0;entryX=0.5;entryY=0;entryDx=0;entryDy=0;" parent="1" source="ltitkqDnKHNBnyyiyaz9-5" target="ltitkqDnKHNBnyyiyaz9-8" edge="1">
          <mxGeometry relative="1" as="geometry" />
        </mxCell>
        <mxCell id="ltitkqDnKHNBnyyiyaz9-5" value="&lt;font style=&quot;font-size: 18px;&quot;&gt;Model&lt;/font&gt;" style="rounded=1;whiteSpace=wrap;html=1;fillColor=#68A9D4;" parent="1" vertex="1">
          <mxGeometry x="185" y="131" width="80" height="40" as="geometry" />
        </mxCell>
        <mxCell id="ltitkqDnKHNBnyyiyaz9-92" style="edgeStyle=orthogonalEdgeStyle;rounded=1;orthogonalLoop=1;jettySize=auto;html=1;exitX=0.5;exitY=1;exitDx=0;exitDy=0;entryX=0.5;entryY=0;entryDx=0;entryDy=0;" parent="1" source="ltitkqDnKHNBnyyiyaz9-6" target="ltitkqDnKHNBnyyiyaz9-28" edge="1">
          <mxGeometry relative="1" as="geometry" />
        </mxCell>
        <mxCell id="ltitkqDnKHNBnyyiyaz9-6" value="&lt;font style=&quot;font-size: 18px;&quot;&gt;Trial&lt;/font&gt;" style="rounded=1;whiteSpace=wrap;html=1;fillColor=#68A9D4;" parent="1" vertex="1">
          <mxGeometry x="715.25" y="170" width="98.5" height="40" as="geometry" />
        </mxCell>
        <mxCell id="ltitkqDnKHNBnyyiyaz9-68" style="edgeStyle=orthogonalEdgeStyle;rounded=1;orthogonalLoop=1;jettySize=auto;html=1;exitX=0.5;exitY=1;exitDx=0;exitDy=0;entryX=0.5;entryY=0;entryDx=0;entryDy=0;" parent="1" source="ltitkqDnKHNBnyyiyaz9-8" target="ltitkqDnKHNBnyyiyaz9-9" edge="1">
          <mxGeometry relative="1" as="geometry" />
        </mxCell>
        <mxCell id="ltitkqDnKHNBnyyiyaz9-8" value="&lt;font style=&quot;font-size: 14px;&quot;&gt;my_model&lt;/font&gt;" style="rounded=1;whiteSpace=wrap;html=1;fillColor=#A9E4F5;" parent="1" vertex="1">
          <mxGeometry x="181" y="250" width="88" height="30" as="geometry" />
        </mxCell>
        <mxCell id="ltitkqDnKHNBnyyiyaz9-77" style="edgeStyle=orthogonalEdgeStyle;rounded=1;orthogonalLoop=1;jettySize=auto;html=1;exitX=0.5;exitY=1;exitDx=0;exitDy=0;entryX=0.5;entryY=0;entryDx=0;entryDy=0;" parent="1" source="ltitkqDnKHNBnyyiyaz9-9" target="ltitkqDnKHNBnyyiyaz9-10" edge="1">
          <mxGeometry relative="1" as="geometry">
            <Array as="points">
              <mxPoint x="225" y="416" />
              <mxPoint x="107" y="416" />
            </Array>
            <mxPoint x="327" y="380.5" as="sourcePoint" />
          </mxGeometry>
        </mxCell>
        <mxCell id="ltitkqDnKHNBnyyiyaz9-9" value="&lt;span style=&quot;font-size: 14px;&quot;&gt;run()&lt;/span&gt;" style="rounded=1;whiteSpace=wrap;html=1;fillColor=#F2A25C;" parent="1" vertex="1">
          <mxGeometry x="189.5" y="345" width="71" height="30" as="geometry" />
        </mxCell>
        <mxCell id="ltitkqDnKHNBnyyiyaz9-10" value="&lt;span style=&quot;font-size: 14px;&quot;&gt;generator_patient_arrivals()&lt;/span&gt;" style="rounded=1;whiteSpace=wrap;html=1;fillColor=#F2A25C;" parent="1" vertex="1">
          <mxGeometry x="14" y="488" width="186" height="30" as="geometry" />
        </mxCell>
        <mxCell id="ltitkqDnKHNBnyyiyaz9-73" style="edgeStyle=orthogonalEdgeStyle;rounded=1;orthogonalLoop=1;jettySize=auto;html=1;exitX=1;exitY=0.5;exitDx=0;exitDy=0;entryX=0.5;entryY=0;entryDx=0;entryDy=0;" parent="1" source="ltitkqDnKHNBnyyiyaz9-12" target="ltitkqDnKHNBnyyiyaz9-13" edge="1">
          <mxGeometry relative="1" as="geometry" />
        </mxCell>
        <mxCell id="ltitkqDnKHNBnyyiyaz9-12" value="Creates patient and enters into attend_clinic()" style="text;html=1;align=center;verticalAlign=middle;whiteSpace=wrap;rounded=1;" parent="1" vertex="1">
          <mxGeometry x="16" y="518" width="180" height="40" as="geometry" />
        </mxCell>
        <mxCell id="ltitkqDnKHNBnyyiyaz9-13" value="&lt;span style=&quot;font-size: 14px;&quot;&gt;attend_clinic()&lt;/span&gt;" style="rounded=1;whiteSpace=wrap;html=1;fillColor=#F2A25C;" parent="1" vertex="1">
          <mxGeometry x="172" y="663.5" width="180" height="30" as="geometry" />
        </mxCell>
        <mxCell id="ltitkqDnKHNBnyyiyaz9-14" value="Samples and passes time to next patient arrival" style="text;html=1;align=center;verticalAlign=middle;whiteSpace=wrap;rounded=1;" parent="1" vertex="1">
          <mxGeometry x="16" y="601.5" width="180" height="40" as="geometry" />
        </mxCell>
        <mxCell id="ltitkqDnKHNBnyyiyaz9-17" value="" style="curved=1;endArrow=classic;html=1;rounded=1;" parent="1" edge="1">
          <mxGeometry width="50" height="50" relative="1" as="geometry">
            <mxPoint x="92" y="598" as="sourcePoint" />
            <mxPoint x="102" y="558" as="targetPoint" />
            <Array as="points">
              <mxPoint x="82" y="588" />
              <mxPoint x="82" y="568" />
            </Array>
          </mxGeometry>
        </mxCell>
        <mxCell id="ltitkqDnKHNBnyyiyaz9-18" value="&lt;div&gt;&lt;br&gt;&lt;/div&gt;&lt;div&gt;&lt;br&gt;&lt;/div&gt;" style="shape=umlActor;verticalLabelPosition=bottom;verticalAlign=top;html=1;outlineConnect=0;rounded=1;" parent="1" vertex="1">
          <mxGeometry x="-16" y="504.5" width="30" height="60" as="geometry" />
        </mxCell>
        <mxCell id="ltitkqDnKHNBnyyiyaz9-21" value="&lt;div&gt;&lt;br&gt;&lt;/div&gt;&lt;div&gt;&lt;br&gt;&lt;/div&gt;" style="shape=umlActor;verticalLabelPosition=bottom;verticalAlign=top;html=1;outlineConnect=0;rounded=1;" parent="1" vertex="1">
          <mxGeometry x="136" y="671.5" width="30" height="60" as="geometry" />
        </mxCell>
        <mxCell id="ltitkqDnKHNBnyyiyaz9-22" value="Waits for and captures receptionist, then nurse, then optionally doctor" style="text;html=1;align=center;verticalAlign=middle;whiteSpace=wrap;rounded=1;" parent="1" vertex="1">
          <mxGeometry x="160" y="700" width="230" height="40" as="geometry" />
        </mxCell>
        <mxCell id="ltitkqDnKHNBnyyiyaz9-98" style="edgeStyle=orthogonalEdgeStyle;rounded=1;orthogonalLoop=1;jettySize=auto;html=1;exitX=0.5;exitY=1;exitDx=0;exitDy=0;" parent="1" source="ltitkqDnKHNBnyyiyaz9-25" target="ltitkqDnKHNBnyyiyaz9-29" edge="1">
          <mxGeometry relative="1" as="geometry" />
        </mxCell>
        <mxCell id="ltitkqDnKHNBnyyiyaz9-25" value="&lt;font style=&quot;font-size: 18px;&quot;&gt;Patient&lt;/font&gt;" style="rounded=1;whiteSpace=wrap;html=1;fillColor=#68A9D4;" parent="1" vertex="1">
          <mxGeometry x="-100" y="455.5" width="80" height="40" as="geometry" />
        </mxCell>
        <mxCell id="ltitkqDnKHNBnyyiyaz9-93" style="edgeStyle=orthogonalEdgeStyle;rounded=1;orthogonalLoop=1;jettySize=auto;html=1;exitX=0.5;exitY=1;exitDx=0;exitDy=0;entryX=0.5;entryY=0;entryDx=0;entryDy=0;" parent="1" source="ltitkqDnKHNBnyyiyaz9-28" target="ltitkqDnKHNBnyyiyaz9-32" edge="1">
          <mxGeometry relative="1" as="geometry" />
        </mxCell>
        <mxCell id="ltitkqDnKHNBnyyiyaz9-28" value="&lt;font style=&quot;font-size: 14px;&quot;&gt;trial&lt;/font&gt;" style="rounded=1;whiteSpace=wrap;html=1;fillColor=#A9E4F5;" parent="1" vertex="1">
          <mxGeometry x="722.5" y="245" width="78.5" height="30" as="geometry" />
        </mxCell>
        <mxCell id="ltitkqDnKHNBnyyiyaz9-29" value="&lt;font style=&quot;font-size: 14px;&quot;&gt;p&lt;/font&gt;" style="rounded=1;whiteSpace=wrap;html=1;fillColor=#A9E4F5;" parent="1" vertex="1">
          <mxGeometry x="-93" y="530.5" width="66" height="30" as="geometry" />
        </mxCell>
        <mxCell id="ltitkqDnKHNBnyyiyaz9-30" value="&lt;span style=&quot;font-size: 14px;&quot;&gt;patient_reception_time_dist&lt;/span&gt;" style="rounded=1;whiteSpace=wrap;html=1;fillColor=#A9E4F5;" parent="1" vertex="1">
          <mxGeometry x="-51" y="230" width="182" height="30" as="geometry" />
        </mxCell>
        <mxCell id="ltitkqDnKHNBnyyiyaz9-31" value="&lt;font style=&quot;font-size: 14px;&quot;&gt;nurse_consult_time_dist&lt;/font&gt;" style="rounded=1;whiteSpace=wrap;html=1;fillColor=#A9E4F5;" parent="1" vertex="1">
          <mxGeometry x="-51" y="270" width="182" height="30" as="geometry" />
        </mxCell>
        <mxCell id="ltitkqDnKHNBnyyiyaz9-32" value="&lt;font style=&quot;font-size: 14px;&quot;&gt;run_trial()&lt;/font&gt;" style="rounded=1;whiteSpace=wrap;html=1;fillColor=#F2A25C;" parent="1" vertex="1">
          <mxGeometry x="716.75" y="326.75" width="90" height="30" as="geometry" />
        </mxCell>
        <mxCell id="ltitkqDnKHNBnyyiyaz9-33" value="&lt;font style=&quot;font-size: 14px;&quot;&gt;print_trial_results()&lt;/font&gt;" style="rounded=1;whiteSpace=wrap;html=1;fillColor=#F2A25C;" parent="1" vertex="1">
          <mxGeometry x="698" y="448.25" width="127.5" height="30" as="geometry" />
        </mxCell>
        <mxCell id="ltitkqDnKHNBnyyiyaz9-37" value="run results" style="rounded=1;whiteSpace=wrap;html=1;fillColor=#D3F1E2;" parent="1" vertex="1">
          <mxGeometry x="480" y="620" width="120" height="30" as="geometry" />
        </mxCell>
        <mxCell id="zWz8RV0xRibQdLOpu7tA-14" style="edgeStyle=orthogonalEdgeStyle;shape=connector;rounded=1;orthogonalLoop=1;jettySize=auto;html=1;exitX=0.5;exitY=1;exitDx=0;exitDy=0;entryX=0.5;entryY=0;entryDx=0;entryDy=0;strokeColor=default;align=center;verticalAlign=middle;fontFamily=Helvetica;fontSize=11;fontColor=default;labelBackgroundColor=default;endArrow=classic;" edge="1" parent="1" source="ltitkqDnKHNBnyyiyaz9-39" target="ltitkqDnKHNBnyyiyaz9-33">
          <mxGeometry relative="1" as="geometry" />
        </mxCell>
        <mxCell id="ltitkqDnKHNBnyyiyaz9-39" value="Performs multiple runs / replications and prints run-level results by calling..." style="text;html=1;align=center;verticalAlign=middle;whiteSpace=wrap;rounded=1;" parent="1" vertex="1">
          <mxGeometry x="674.25" y="363.75" width="175" height="40" as="geometry" />
        </mxCell>
        <mxCell id="ltitkqDnKHNBnyyiyaz9-41" value="Key:" style="text;html=1;align=center;verticalAlign=middle;whiteSpace=wrap;rounded=1;fontStyle=1;" parent="1" vertex="1">
          <mxGeometry x="786.5" y="570" width="45" height="25" as="geometry" />
        </mxCell>
        <mxCell id="ltitkqDnKHNBnyyiyaz9-42" value="Results" style="rounded=1;whiteSpace=wrap;html=1;fillColor=#D3F1E2;" parent="1" vertex="1">
          <mxGeometry x="741.5" y="721" width="135" height="30" as="geometry" />
        </mxCell>
        <mxCell id="ltitkqDnKHNBnyyiyaz9-43" value="Functions or methods" style="rounded=1;whiteSpace=wrap;html=1;fillColor=#F2A25C;" parent="1" vertex="1">
          <mxGeometry x="741.5" y="683" width="135" height="30" as="geometry" />
        </mxCell>
        <mxCell id="ltitkqDnKHNBnyyiyaz9-44" value="Instance of class" style="rounded=1;whiteSpace=wrap;html=1;fillColor=#A9E4F5;" parent="1" vertex="1">
          <mxGeometry x="741.5" y="644" width="135" height="30" as="geometry" />
        </mxCell>
        <mxCell id="ltitkqDnKHNBnyyiyaz9-45" value="Class" style="rounded=1;whiteSpace=wrap;html=1;fillColor=#68A9D4;" parent="1" vertex="1">
          <mxGeometry x="741.5" y="605.5" width="135" height="30" as="geometry" />
        </mxCell>
        <mxCell id="ltitkqDnKHNBnyyiyaz9-72" value="" style="curved=1;endArrow=classic;html=1;rounded=1;" parent="1" edge="1">
          <mxGeometry width="50" height="50" relative="1" as="geometry">
            <mxPoint x="117" y="561.5" as="sourcePoint" />
            <mxPoint x="107" y="601.5" as="targetPoint" />
            <Array as="points">
              <mxPoint x="127" y="571.5" />
              <mxPoint x="127" y="591.5" />
            </Array>
          </mxGeometry>
        </mxCell>
        <mxCell id="ltitkqDnKHNBnyyiyaz9-78" style="edgeStyle=orthogonalEdgeStyle;rounded=1;orthogonalLoop=1;jettySize=auto;html=1;exitX=0.5;exitY=1;exitDx=0;exitDy=0;" parent="1" source="ltitkqDnKHNBnyyiyaz9-22" target="ltitkqDnKHNBnyyiyaz9-22" edge="1">
          <mxGeometry relative="1" as="geometry" />
        </mxCell>
        <mxCell id="ltitkqDnKHNBnyyiyaz9-88" value="" style="curved=1;endArrow=classic;html=1;rounded=1;dashed=1;exitX=0.792;exitY=0.185;exitDx=0;exitDy=0;exitPerimeter=0;" parent="1" edge="1" source="ltitkqDnKHNBnyyiyaz9-87">
          <mxGeometry width="50" height="50" relative="1" as="geometry">
            <mxPoint x="270" y="380" as="sourcePoint" />
            <mxPoint x="510" y="580" as="targetPoint" />
            <Array as="points">
              <mxPoint x="390" y="460" />
              <mxPoint x="490" y="480" />
            </Array>
          </mxGeometry>
        </mxCell>
        <mxCell id="ltitkqDnKHNBnyyiyaz9-100" value="&lt;font style=&quot;font-size: 18px;&quot;&gt;Running the model&lt;/font&gt;" style="text;html=1;align=center;verticalAlign=middle;whiteSpace=wrap;rounded=1;fontStyle=1;" parent="1" vertex="1">
          <mxGeometry x="669.5" y="110" width="190" height="31" as="geometry" />
        </mxCell>
        <mxCell id="vqxNZKrtE7Uk3ozEDKWz-13" value="&lt;font style=&quot;font-size: 18px;&quot;&gt;Set-up&lt;/font&gt;" style="text;html=1;align=center;verticalAlign=middle;whiteSpace=wrap;rounded=1;fontStyle=1;" parent="1" vertex="1">
          <mxGeometry x="-70" y="70" width="90" height="31" as="geometry" />
        </mxCell>
        <mxCell id="vqxNZKrtE7Uk3ozEDKWz-14" value="&lt;font style=&quot;font-size: 18px;&quot;&gt;Simulation&lt;/font&gt;" style="text;html=1;align=center;verticalAlign=middle;whiteSpace=wrap;rounded=1;fontStyle=1;" parent="1" vertex="1">
          <mxGeometry x="-96" y="405.5" width="110" height="31" as="geometry" />
        </mxCell>
        <mxCell id="zWz8RV0xRibQdLOpu7tA-1" value="&lt;font style=&quot;font-size: 14px;&quot;&gt;doctor_consult_time_dist&lt;/font&gt;" style="rounded=1;whiteSpace=wrap;html=1;fillColor=#A9E4F5;" vertex="1" parent="1">
          <mxGeometry x="-51" y="310.5" width="182" height="30" as="geometry" />
        </mxCell>
        <mxCell id="zWz8RV0xRibQdLOpu7tA-2" value="&lt;font style=&quot;font-size: 14px;&quot;&gt;patient_inter_arrival_dist&lt;/font&gt;" style="rounded=1;whiteSpace=wrap;html=1;fillColor=#A9E4F5;" vertex="1" parent="1">
          <mxGeometry x="-51" y="190" width="182" height="30" as="geometry" />
        </mxCell>
        <mxCell id="zWz8RV0xRibQdLOpu7tA-9" value="Global parameters" style="text;html=1;align=center;verticalAlign=middle;whiteSpace=wrap;rounded=1;" vertex="1" parent="1">
          <mxGeometry x="302" y="171" width="126" height="24" as="geometry" />
        </mxCell>
        <mxCell id="zWz8RV0xRibQdLOpu7tA-13" value="&lt;span style=&quot;font-size: 14px;&quot;&gt;calculate_run_results()&lt;/span&gt;" style="rounded=1;whiteSpace=wrap;html=1;fillColor=#F2A25C;" vertex="1" parent="1">
          <mxGeometry x="450" y="585" width="180" height="30" as="geometry" />
        </mxCell>
      </root>
    </mxGraphModel>
  </diagram>
</mxfile>
